<svg enable-background="new 0 0 1616.7 52.6" viewBox="0 0 1616.7 52.6" xmlns="http://www.w3.org/2000/svg"><g fill="#e6e6e6"><path d="m23.8 9.1c-2.5 4.8-6.4 9.7-9.8 12.2-.3-.4-.7-.8-1.1-1.2 3.6-2.4 7.8-7.5 10.1-12.4h-8.3v-1.5h9.1v-6.1h1.4v6.1h7.6v1.5h-7.6v.9c1.7 1.2 6.8 5.6 8.1 6.7l-1 1.2c-1.2-1.3-4.9-4.5-7.1-6.3v12h-1.5v-13.1zm-9.7 22.7h43.1v1.5h-21v14.2h-1.4v-14.2h-20.7zm13.5 5.1c-3 3.7-6.6 7-10.6 9.5-.4-.4-.8-.7-1.3-1.1 4-2.3 7.6-5.3 10.5-8.9zm-7.6-12.5h31.8v1.5h-31.8zm25.2-15.7c-2.7 4.8-6.4 9-10.9 12.2-.3-.4-.6-.8-1-1.2 3.9-2.3 8.3-7.2 10.9-12h-8.5v-1.5h9.5v-6.1h1.5v6.1h9.4v1.5h-8.6c3.7 3.4 7 7.2 10 11.3l-1.1 1c-2.8-4.1-6.1-7.9-9.7-11.3v13.5h-1.5zm-1.1 27.7c3.9 2.5 7.6 5.4 11 8.5l-1 1.1c-3.4-3.2-7.1-6.1-10.9-8.7z"/><path d="m176.3 43.6v1.5h-44.3v-1.5h7.5v-31h1.5v31h14.3v-43.2h1.4v18.6h17.8v1.5h-17.8v23h19.6z"/><path d="m259.3 21.9c-2.7-2-5.6-3.8-8.6-5.4l.9-1.1c2.9 1.6 6.6 3.8 8.6 5.2zm-7.5 24c3.3-5.7 6.2-11.5 8.9-17.4l1.1 1c-2.5 5.5-6 12.8-8.7 17.4zm8.9-38c-2.5-2.1-5.2-4-8-5.7l.9-1c2.8 1.7 5.4 3.5 8 5.4zm23-3.3v9.4h10.2v33.4h-1.4v-2.5h-25.6v2.8h-1.5v-33.8h9v-9.3h-11.4v-1.5h33.2v1.5zm8.7 38.7v-16.6c-.3 0-.6.1-.9 0h-6.2c-2.5 0-3.2-.3-3.2-2.5v-8.8h-6.4v2.4c0 3.8-1.6 8.4-7.5 11.8-.3-.5-.6-.9-1-1.2 5.6-3.1 7-7.2 7-10.6v-2.4h-7.5v27.8zm-21.4-9.9h18v1.6h-18zm11.2-28.8h-6.4v9.3h6.4zm10.2 10.9h-8.8v8.8c0 .8.2 1 1.7 1h5.9c.9 0 1.1 0 1.2-.1z"/><path d="m381.9 5.7c-1.5 5.5-4.4 9.5-10.2 11.9-.3-.4-.6-.8-1-1.1 5.5-2.1 8.2-5.9 9.6-10.8h-8.4v-1.6h8.8c.3-1.3.5-2.7.6-4h1.5c-.1 1.3-.4 2.7-.6 4h10.4v1c-.5 6.2-.9 8.6-1.8 9.5-.6.5-1.4.8-2.2.7-1.6 0-3.1 0-4.7-.2-.1-.5-.2-1-.5-1.5 2.1.2 4.2.3 4.9.3.5.1 1-.1 1.4-.4.5-.6 1-2.7 1.4-7.9zm-11.2 41c2.4-2.2 4.8-5.9 6.4-8.2l1.2.7c-1.9 2.9-4 5.6-6.3 8.2zm42.7-11.6s0 .6-.1 1c-.7 7.1-1.4 9.9-2.5 11-.7.6-1.5.9-2.4.7-1.8 0-3.6 0-5.4-.2-.1-.5-.2-1.1-.5-1.5 2.5.3 4.8.3 5.5.3s1.3 0 1.6-.4c.8-.8 1.4-3.2 2.1-9.3h-33.5-.6v-18.5h32.4v1.5h-14.4v4.2h12.4v1.5h-12.4v4.1h12.6v1.5h-12.6v4.2zm-34.2-15.4v4.2h15v-4.2zm14.9 5.7h-15v4.1h15zm0 5.6h-15v4.2h15zm-9.6 8c.8 2.3 1.4 4.8 1.7 7.2l-1.5.4c-.2-2.5-.8-4.9-1.6-7.3zm8.2-.2c1.4 2 2.6 4.1 3.6 6.4l-1.5.7c-.8-2.3-2-4.5-3.4-6.5zm20.4-23.9h-16.7v-11.8h16.7zm-1.4-10.3h-13.8v8.8h13.8zm-7.6 39.4c-1.2-1.9-2.6-3.6-4.3-5l1.1-.8c1.7 1.4 3.1 3.1 4.4 4.8z"/><path d="m634.9 24.1c4.8 7.7 13.3 15.3 20.6 18.7-.4.4-.8.8-1.1 1.2-7.5-3.8-16.2-11.9-21.1-20v23.6h-1.5v-23.5c-5.1 8.3-12.3 15.2-20.8 20-.3-.4-.6-.9-1-1.2 7.3-3.5 15.6-11 20.3-18.8h-19.3v-1.6h20.8v-11.5h-17.4v-1.5h17.4v-9.3h1.5v9.3h18v1.5h-18v11.5h21.1v1.5z"/><path d="m737.4 21.5c-2.6-2.2-5.5-4-8.6-5.4l.8-1.2c3.1 1.3 6 3 8.6 5.2zm-7.4 24.4c2.8-5.4 5.2-11 7.4-16.7l1.2.9c-2 5.4-4.9 12.2-7.2 16.8zm2.1-45.2c2.9 1.5 5.6 3.5 8 5.8l-1 1.3c-2.4-2.4-5.1-4.4-8-6zm25.3 14.7v5h14.6v24.8c0 1.2-.3 1.8-1.2 2.1-2.1.3-4.2.4-6.3.3-.2-.5-.4-1-.6-1.4h5.8s.8-.2.8-.8v-23.4h-13v24.8h-1.5v-24.8h-12.5v25.6h-1.5v-27.2h13.9v-5h-7.2v-7.5h-8.3v-1.6h8.3v-6.2h1.5v6.2h13.2v-6.2h1.5v6.2h9.2v1.6h-9.2v7.6h-7.5zm-6.7 10.8c.3 6.1 2.1 10.8 4.7 13.1-.4.3-.7.7-1 1.2-1.9-1.7-3.3-4.5-4.1-8.1-.6 3.2-2.2 6.1-4.6 8.3-.3-.3-.7-.6-1.1-.9 2.7-2 4.2-5.8 4.7-9.2h.7c-.2-.9-.3-1.8-.3-2.8h-3.5v-1.5h4.5zm-.5-12.4h13.2v-6h-13.3zm14.3 12.4c.4 6.1 2.4 10.8 5.3 12.8-.4.4-.8.8-1.1 1.2-2.3-2.1-3.9-4.8-4.6-7.9-.7 3.1-2.4 5.9-4.8 8-.3-.3-.7-.6-1.2-.8 2.8-2 4.3-5.7 4.9-9.1h.6c-.2-.9-.3-1.8-.3-2.7h-3.4v-1.6h4.6z"/><path d="m890.3 22.6h-21.5v25.5h-1.5v-25.5h-21.3v-1.5h21.3v-20.4h1.5v20.4h21.5z"/><path d="m980.5 5.4c-1.4 15.4-4 32.6-14.6 42.5-.4-.4-.7-.8-1.2-1.1 10.5-9.8 13-26.7 14.1-41.7zm12.5-1.1c2.3 19.9 7 35.5 17.2 42.5-.5.3-.9.7-1.3 1.1-10-7.2-14.8-22.4-17.1-42h-5.8v-1.6z"/><path d="m1124.5 26.2c-1.5 4.5-3.8 8.7-6.8 12.3 2.2 5 5 7.7 7.8 7.7 1.3 0 1.9-2.1 2.1-7.4.4.3.9.6 1.3.7-.3 6.2-1.1 8.2-3.6 8.2-3.4 0-6.4-3-8.7-8.1-2.9 3.3-6.2 6.1-10 8.3-.3-.5-.7-.9-1.1-1.2 4-2.2 7.6-5.1 10.5-8.5-1.9-5.1-3.1-10.4-3.6-15.8h-22.4v7c0 5.5-.7 13.2-4.3 18.8-.4-.4-.8-.6-1.2-.8 3.5-5.4 4.1-12.7 4.1-18v-8.5h23.7c-.2-2-.3-3.9-.4-6h-26.5v-1.6h8.6v-10.3h1.5v10.4h11v-12.8h1.4v5.3h15.8v1.6h-15.7v5.9h20.9v1.5h-15.4c.1 2.1.2 4.1.3 6h14.8v1.6h-14.6c.4 5 1.5 9.8 3.2 14.5 2.6-3.4 4.6-7.1 6-11.1zm-27.5 5.2c-.7 3.1-1.9 6-3.5 8.7-.4-.3-.8-.6-1.2-.9 1.6-2.5 2.6-5.2 3.2-8.1zm12.7.5c-2.1 7.3-8.1 13-16.6 15.7-.2-.4-.5-.8-.8-1.2 8.1-2.6 14-7.9 15.7-14.8zm-9 7.8v-11.6h-7.7v-1.5h16.8v1.5h-7.7v11.7zm22.9-19.5c-2.1-1.7-4.5-3.1-7-4.1l.8-1.1c2.5.9 4.9 2.3 7 3.9z"/><path d="m1214.5 9.1c-2.5 4.8-6.4 9.7-9.8 12.2-.3-.4-.7-.8-1.1-1.2 3.6-2.4 7.8-7.5 10.1-12.4h-8.3v-1.5h9.1v-6.1h1.5v6.1h7.6v1.5h-7.6v.9c1.7 1.2 6.8 5.6 8.1 6.7l-1 1.2c-1.2-1.3-4.9-4.5-7.1-6.3v12h-1.4zm-9.8 22.7h43.1v1.5h-21v14.2h-1.5v-14.2h-20.6zm13.6 5.1c-3 3.7-6.6 7-10.6 9.5-.4-.4-.8-.7-1.3-1.1 4-2.3 7.6-5.3 10.5-8.9zm-7.6-12.5h31.8v1.5h-31.8zm25.2-15.7c-2.7 4.8-6.4 9-10.9 12.2-.3-.4-.6-.8-1-1.2 3.9-2.3 8.3-7.2 10.9-12h-8.5v-1.5h9.5v-6.1h1.4v6.1h9.4v1.5h-8.6c3.7 3.4 7 7.2 10 11.3l-1.1 1c-2.8-4.1-6.1-7.9-9.7-11.2v13.5h-1.5zm-1.1 27.7c3.9 2.5 7.6 5.4 11 8.5l-1 1.1c-3.4-3.2-7.1-6.1-11-8.7z"/><path d="m1366.9 43.6v1.5h-44.3v-1.5h7.6v-31h1.5v31h14.2v-43.2h1.5v18.6h17.8v1.5h-17.8v23h19.5z"/><path d="m1453.6.5c-.3.6-.7 1.2-1.1 1.8 3.4 2.3 7.4 5.3 9.5 7.2l-1 1.3c-2.1-1.9-6-4.9-9.2-7.3-2.9 4.2-6.5 7.8-10.6 10.8-.3-.5-.7-.9-1.1-1.3 5-3.3 9.2-7.8 12.1-13zm2.4 34.5c1.7 3.3 3.7 7.6 4.7 10l-1.3.7c-.5-1.6-1.2-3.1-1.9-4.7-12.6 5.1-13.9 5.7-14.7 6.4-.2-.6-.5-1.1-.8-1.6 1.3-.3 2.2-1.5 2.2-2.8v-27h15.6v16.6h-14.1v11.6l11.3-4.4c-.7-1.5-1.5-3.1-2.2-4.4zm-10.4-17.4v5.5h12.7v-5.5zm12.7 13.6v-6.5h-12.7v6.5zm-2.4-21v1.5h-8.2v-1.5zm17.8 7.8c0 1.5 0 3.2-.2 4.9 1.8 10.5 5.5 19.9 11.7 23.5-.4.3-.8.7-1.1 1.2-5.5-3.6-9-11.2-11-20.3-.9 7.8-4.7 15-10.5 20.3-.3-.4-.7-.7-1.2-1 10.2-9.2 10.8-20.6 10.8-28.6v-2.4h1.4zm-5.8-6.4c-1 3.7-2.5 7.2-4.4 10.6-.5-.3-1-.6-1.5-.8 3.5-5.2 5.5-12.8 6.6-21.2l1.6.3c-.5 3.4-1.2 6.6-1.9 9.7h15.4l.3-.1.9.4c-.9 4.5-2 9-3.4 13.4l-1.2-.6c1-2.9 2-7.6 2.9-11.6z"/><path d="m1566.9 21.9c-2.7-2-5.6-3.8-8.6-5.4l.8-1.1c2.9 1.6 6.6 3.8 8.6 5.2zm-7.5 24c3.3-5.7 6.2-11.5 8.9-17.4l1.1 1c-2.5 5.5-6 12.8-8.7 17.4zm8.9-38c-2.5-2.1-5.2-4-8-5.7l.9-1c2.8 1.7 5.4 3.5 8 5.4zm22.9-3.3v9.4h10.2v33.4h-1.5v-2.5h-25.6v2.8h-1.4v-33.8h9v-9.3h-11.3v-1.5h33.2v1.5zm8.8 38.7v-16.6c-.3 0-.6.1-.9 0h-6.2c-2.5 0-3.2-.3-3.2-2.5v-8.8h-6.4v2.4c0 3.8-1.6 8.4-7.5 11.8-.3-.5-.6-.9-1-1.2 5.6-3.1 7-7.2 7-10.6v-2.4h-7.5v27.8zm-21.4-9.8h18v1.5h-18zm11.2-28.9h-6.4v9.4h6.4zm10.2 10.9h-8.8v8.8c0 .8.2 1 1.7 1h5.9c.9 0 1.1 0 1.2-.1z"/></g><path d="m535.6 26.7c0-13.2-10.7-23.8-23.8-23.8-13.2 0-23.8 10.7-23.8 23.8s10.7 23.8 23.8 23.8 23.7-10.6 23.8-23.8z" fill="#fff" opacity=".8" stroke="#fff" stroke-width="4.18"/><circle cx="511.7" cy="26.8" fill="#fff" r="21.4"/><g fill="#231815"><path d="m523.6 12.7h-8.7s-1.1 3.2-1.4 4.8c-.3 1.7-1.1 3.7-.2 5.5s2.6 2.7 4 3.7 1.5 1.1 1.5 2.4v7.9c0 .7-.1 1.4-.5 2.1-.3.4-.6.8-2.1 1-.7 0-1.4.2-2 .4-.1.1-.1.3 0 .4h5c4.9 0 5-.1 5-.1.1-.1.1-.2 0-.3-.1-.2-.3-.2-.8-.3-.8 0-1.6-.2-2.4-.4-.6-.3-1.3-.7-1.3-2.8s0-7.1.1-7.9c-.1-1 .5-2 1.5-2.3 1.6-.8 3.9-2.9 4.5-4.2s-.2-4.5-.8-6.2c-.5-1.7-1.4-3.7-1.4-3.7z"/><ellipse cx="515.5" cy="38" rx="1.6" ry="1.6"/><ellipse cx="504.1" cy="38" rx="1.6" ry="1.6"/><path d="m500.2 36.3c.1-.7.1-.8.4-1 .4-.2.9-.4 1.3-.5.4-.2.5-.5.9-.9.9-.8 1.9-1.4 3-1.8 1.2-.3 2.5-.3 3.8-.1.7.1 1.4.3 2 .8.4.3 1.6 1.1 1.9 1.3.1.1.3.2.5.3.8 0 1.5.2 2.3.4.7.4.7.7.7.7.5.3.8.8 1 1.3.1.4.1.8 0 1.2-.1.2-.2.4-.4.5 0 0 .2-2.3-1.9-2.3-2.2 0-2.2 2.6-2.2 2.6h-7.2c.1-2-.9-2.6-2.2-2.6-1.1-.1-2.1.8-2.2 1.9v.1-.4h.1c-.3 0-.8.2-1.3.2-.8-.1-.6-1-.5-1.7z"/><path d="m493.4 27.9s0-.2 0-.4.2-.1.2-.1c.1-.3.2-.5.3-.7.3-.5.8-.9.8-1s0-.3-.1-.4-.1-.4-.1-.4 0 .1-.4-.1-.2-.1.2-.1h.6c0-1 .1-.4.2-.4h.6 1.4c.7-.2 1 0 1.7.1s1.2 0 1.4.1.5.4.5.9-.2.5-.2.5 0 .6.2 1.4c.1.5.2.9.4 1.4h1.1c.2-.3.3-.7.3-1 .2-1 .2-2.1.1-3.1 0-.3-.1-.6-.3-.8-.1-.1-.2-.2-.4-.2-.1 0-.3.1-.4-.2s.4-.3.4-.3l.4-.3-.4-.5c-.1.1-.2.1-.4.1-.1 0-.3-.2-.3-.5 0-.1.1-.5.3-.4s.6.4.5.6l.4.5c.2-.1.3-.1.5-.2l-.2-.3c-.1 0-.1.1-.2.1s-.2-.1-.2-.4 0-.3.2-.3.4.2.4.4l.3.4c.2-.1.5 0 .7.1.3.2.1.6.1.9s-.5.4-.5.4c.5.1.9.4 1.1.8.2.2.4.6.5.9.4 0 .8.1 1.1.2.5.2.9.5 1.2.9-.8-.5-1.8-.6-2.6-.2s-1.3 1.2-1.5 2.1c-.1.6-.6 1-1.2 1-.7.1-3.9 0-3.9 0 .1-.3.2-.7.2-1 0-.7-.4-1.4-1-1.8-.6-.5-1.5-.6-2.2-.3-.5.2-.9.6-1.2 1-.2.3-.5.6-.8.8.2 0 .2-.1.2-.2z"/><path d="m504 28.6c0 1.1.9 1.9 1.9 1.9 1.1 0 1.9-.9 1.9-1.9 0-1.1-.9-1.9-1.9-1.9s-1.9.9-1.9 1.9zm.7 0c0-.7.6-1.3 1.3-1.2.7 0 1.3.6 1.2 1.3 0 .7-.6 1.2-1.3 1.2-.7.1-1.2-.5-1.2-1.3 0 .1 0 .1 0 0z"/><path d="m484.7 28.6c0 1.1.9 1.9 1.9 1.9 1.1 0 1.9-.9 1.9-1.9 0-1.1-.9-1.9-1.9-1.9s-1.9.9-1.9 1.9zm.6 0c0-.7.6-1.3 1.3-1.2.7 0 1.3.6 1.2 1.3 0 .7-.6 1.2-1.3 1.2-.6.1-1.2-.5-1.2-1.3 0 .1 0 .1 0 0z"/></g><path d="m535.6 26.7c0-13.2-10.7-23.8-23.8-23.8-13.2 0-23.8 10.7-23.8 23.8s10.7 23.8 23.8 23.8 23.7-10.6 23.8-23.8zm-43.9 0c0-5.1 2-10 5.5-13.7l28.3 28.3c-8 7.6-20.7 7.2-28.3-.8-3.4-3.7-5.4-8.7-5.5-13.8zm40 0c0 4.4-1.4 8.7-4.1 12.1l-28-28c8.8-6.7 21.3-5 28 3.7 2.7 3.6 4.2 7.9 4.1 12.2z" fill="#b12523"/></svg>